<svg version="1.1" viewBox="0.0 0.0 600.0 371.0" fill="none" stroke="none" stroke-linecap="square" stroke-miterlimit="10" width="600" height="371" xmlns:xlink="http://www.w3.org/1999/xlink" xmlns="http://www.w3.org/2000/svg"><path fill="#ffffff" d="M0 0L600.0 0L600.0 371.0L0 371.0L0 0Z" fill-rule="nonzero"/><path stroke="#333333" stroke-width="1.0" stroke-linecap="butt" d="M159.5 81.5L159.5 332.5" fill-rule="nonzero"/><path stroke="#cccccc" stroke-width="1.0" stroke-linecap="butt" d="M265.5 81.5L265.5 332.5" fill-rule="nonzero"/><path stroke="#cccccc" stroke-width="1.0" stroke-linecap="butt" d="M370.5 81.5L370.5 332.5" fill-rule="nonzero"/><path stroke="#cccccc" stroke-width="1.0" stroke-linecap="butt" d="M475.5 81.5L475.5 332.5" fill-rule="nonzero"/><path stroke="#cccccc" stroke-width="1.0" stroke-linecap="butt" d="M581.5 81.5L581.5 332.5" fill-rule="nonzero"/><clipPath id="id_0"><path d="M159.55 81.28333L581.45 81.28333L581.45 332.45L159.55 332.45L159.55 81.28333Z" clip-rule="nonzero"/></clipPath><path stroke="#000000" stroke-width="2.0" stroke-linecap="butt" stroke-opacity="0.0" clip-path="url(#id_0)" d="M160.0 152.0L160.0 119.0L377.0 119.0C378.10458 119.0 379.0 119.89543 379.0 121.0L379.0 150.0C379.0 151.10457 378.10458 152.0 377.0 152.0Z" fill-rule="nonzero"/><path fill="#4285f4" clip-path="url(#id_0)" d="M160.0 152.0L160.0 119.0L377.0 119.0C378.10458 119.0 379.0 119.89543 379.0 121.0L379.0 150.0C379.0 151.10457 378.10458 152.0 377.0 152.0Z" fill-rule="nonzero"/><path stroke="#000000" stroke-width="2.0" stroke-linecap="butt" stroke-opacity="0.0" clip-path="url(#id_0)" d="M160.0 259.0L160.0 226.0L575.0 226.0C576.10455 226.0 577.0 226.89543 577.0 228.0L577.0 257.0C577.0 258.10458 576.10455 259.0 575.0 259.0Z" fill-rule="nonzero"/><path fill="#4285f4" clip-path="url(#id_0)" d="M160.0 259.0L160.0 226.0L575.0 226.0C576.10455 226.0 577.0 226.89543 577.0 228.0L577.0 257.0C577.0 258.10458 576.10455 259.0 575.0 259.0Z" fill-rule="nonzero"/><path stroke="#000000" stroke-width="2.0" stroke-linecap="butt" stroke-opacity="0.0" clip-path="url(#id_0)" d="M160.0 187.0L160.0 154.0L310.0 154.0C311.10458 154.0 312.0 154.89543 312.0 156.0L312.0 185.0C312.0 186.10457 311.10458 187.0 310.0 187.0Z" fill-rule="nonzero"/><path fill="#ea4335" clip-path="url(#id_0)" d="M160.0 187.0L160.0 154.0L310.0 154.0C311.10458 154.0 312.0 154.89543 312.0 156.0L312.0 185.0C312.0 186.10457 311.10458 187.0 310.0 187.0Z" fill-rule="nonzero"/><path stroke="#000000" stroke-width="2.0" stroke-linecap="butt" stroke-opacity="0.0" clip-path="url(#id_0)" d="M160.0 294.0L160.0 261.0L519.0 261.0C520.10455 261.0 521.0 261.89542 521.0 263.0L521.0 292.0C521.0 293.10458 520.10455 294.0 519.0 294.0Z" fill-rule="nonzero"/><path fill="#ea4335" clip-path="url(#id_0)" d="M160.0 294.0L160.0 261.0L519.0 261.0C520.10455 261.0 521.0 261.89542 521.0 263.0L521.0 292.0C521.0 293.10458 520.10455 294.0 519.0 294.0Z" fill-rule="nonzero"/><path fill="#000000" d="M29.550013 239.92917L23.331263 241.83542L23.331263 240.74167L26.925013 239.7573L28.253138 239.3823Q28.159388 239.35104 26.971888 239.05417L23.331263 238.0698L23.331263 236.99167L26.940638 236.05417L28.128138 235.74167L26.925013 235.3823L23.331263 234.3198L23.331263 233.28854L29.550013 235.24167L29.550013 236.33542L25.815638 237.3198L24.768763 237.5698L29.550013 238.8198L29.550013 239.92917ZM26.440638 232.46042Q24.706263 232.46042 23.878138 231.5073Q23.190638 230.71042 23.190638 229.55417Q23.190638 228.27292 24.034388 227.46042Q24.862513 226.6323 26.346888 226.6323Q27.550013 226.6323 28.237513 226.99167Q28.925013 227.35104 29.315638 228.05417Q29.690638 228.74167 29.690638 229.55417Q29.690638 230.85104 28.862513 231.66354Q28.018763 232.46042 26.440638 232.46042ZM26.440638 231.3823Q27.628138 231.3823 28.221888 230.86667Q28.815638 230.33542 28.815638 229.55417Q28.815638 228.7573 28.221888 228.24167Q27.628138 227.72604 26.409388 227.72604Q25.253138 227.72604 24.659388 228.2573Q24.065638 228.77292 24.065638 229.55417Q24.065638 230.33542 24.659388 230.86667Q25.237513 231.3823 26.440638 231.3823ZM29.550013 225.08542L23.331263 225.08542L23.331263 224.1323L24.268763 224.1323Q23.612513 223.77292 23.409388 223.47604Q23.190638 223.16354 23.190638 222.78854Q23.190638 222.2573 23.518763 221.71042L24.503138 222.0698Q24.268763 222.46042 24.268763 222.83542Q24.268763 223.1948 24.487513 223.47604Q24.690638 223.74167 25.065638 223.85104Q25.628138 224.03854 26.284388 224.03854L29.550013 224.03854L29.550013 225.08542ZM29.550013 221.0698L20.956263 221.0698L20.956263 220.0073L25.862513 220.0073L23.331263 217.52292L23.331263 216.14792L25.628138 218.53854L29.550013 215.91354L29.550013 217.21042L26.362513 219.27292L27.081263 220.0073L29.550013 220.0073L29.550013 221.0698ZM29.550013 215.10104L20.956263 215.10104L20.956263 214.03854L29.550013 214.03854L29.550013 215.10104ZM26.440638 212.46042Q24.706263 212.46042 23.878138 211.5073Q23.190638 210.71042 23.190638 209.55417Q23.190638 208.27292 24.034388 207.46042Q24.862513 206.6323 26.346888 206.6323Q27.550013 206.6323 28.237513 206.99167Q28.925013 207.35104 29.315638 208.05417Q29.690638 208.74167 29.690638 209.55417Q29.690638 210.85104 28.862513 211.66354Q28.018763 212.46042 26.440638 212.46042ZM26.440638 211.3823Q27.628138 211.3823 28.221888 210.86667Q28.815638 210.33542 28.815638 209.55417Q28.815638 208.7573 28.221888 208.24167Q27.628138 207.72604 26.409388 207.72604Q25.253138 207.72604 24.659388 208.2573Q24.065638 208.77292 24.065638 209.55417Q24.065638 210.33542 24.659388 210.86667Q25.237513 211.3823 26.440638 211.3823ZM28.784388 201.0073Q29.284388 201.60104 29.487513 202.14792Q29.690638 202.67917 29.690638 203.30417Q29.690638 204.33542 29.190638 204.8823Q28.690638 205.42917 27.909388 205.42917Q27.456263 205.42917 27.081263 205.22604Q26.690638 205.02292 26.471888 204.67917Q26.237513 204.33542 26.128138 203.91354Q26.034388 203.61667 25.956263 202.97604Q25.815638 201.71042 25.596888 201.10104Q25.378138 201.10104 25.331263 201.10104Q24.675013 201.10104 24.409388 201.39792Q24.065638 201.80417 24.065638 202.60104Q24.065638 203.33542 24.331263 203.6948Q24.581263 204.05417 25.237513 204.22604L25.096888 205.2573Q24.440638 205.11667 24.034388 204.78854Q23.628138 204.46042 23.409388 203.85104Q23.190638 203.24167 23.190638 202.4448Q23.190638 201.64792 23.378138 201.14792Q23.565638 200.64792 23.846888 200.41354Q24.128138 200.17917 24.565638 200.08542Q24.831263 200.03854 25.534388 200.03854L26.940638 200.03854Q28.409388 200.03854 28.800013 199.97604Q29.190638 199.89792 29.550013 199.6948L29.550013 200.80417Q29.221888 200.96042 28.784388 201.0073ZM26.425013 201.10104Q26.659388 201.67917 26.831263 202.8198Q26.925013 203.47604 27.050013 203.74167Q27.159388 204.0073 27.378138 204.16354Q27.596888 204.30417 27.878138 204.30417Q28.300013 204.30417 28.581263 203.99167Q28.862513 203.66354 28.862513 203.05417Q28.862513 202.4448 28.596888 201.97604Q28.331263 201.49167 27.862513 201.27292Q27.503138 201.10104 26.815638 201.10104L26.425013 201.10104ZM29.550013 194.03854L28.768763 194.03854Q29.690638 194.6323 29.690638 195.77292Q29.690638 196.52292 29.284388 197.14792Q28.862513 197.77292 28.128138 198.11667Q27.393763 198.46042 26.440638 198.46042Q25.518763 198.46042 24.753138 198.14792Q23.987513 197.83542 23.596888 197.21042Q23.190638 196.58542 23.190638 195.8198Q23.190638 195.2573 23.425013 194.8198Q23.659388 194.3823 24.034388 194.10104L20.956263 194.10104L20.956263 193.05417L29.550013 193.05417L29.550013 194.03854ZM26.440638 197.36667Q27.643763 197.36667 28.237513 196.86667Q28.815638 196.36667 28.815638 195.67917Q28.815638 194.99167 28.253138 194.5073Q27.690638 194.02292 26.534388 194.02292Q25.253138 194.02292 24.659388 194.52292Q24.065638 195.0073 24.065638 195.72604Q24.065638 196.42917 24.643763 196.89792Q25.206263 197.36667 26.440638 197.36667Z" fill-rule="nonzero"/><path fill="#000000" d="M62.01875 157.42696L60.971874 157.42696L60.971874 150.7082Q60.58125 151.06758 59.95625 151.44258Q59.346874 151.80196 58.8625 151.97383L58.8625 150.9582Q59.7375 150.53633 60.39375 149.9582Q61.065624 149.36446 61.346874 148.80196L62.01875 148.80196L62.01875 157.42696ZM72.425 157.42696L72.425 156.50508Q71.69063 157.56758 70.44063 157.56758Q69.89375 157.56758 69.40938 157.36446Q68.94063 157.1457 68.70625 156.8332Q68.47188 156.50508 68.37813 156.03633Q68.31563 155.73946 68.31563 155.05196L68.31563 151.2082L69.37813 151.2082L69.37813 154.66133Q69.37813 155.47383 69.44063 155.7707Q69.53438 156.17696 69.84688 156.42696Q70.175 156.66133 70.65938 156.66133Q71.12813 156.66133 71.53438 156.42696Q71.95625 156.17696 72.12813 155.75508Q72.31563 155.3332 72.31563 154.53633L72.31563 151.2082L73.3625 151.2082L73.3625 157.42696L72.425 157.42696ZM74.925 155.56758L75.95625 155.41133Q76.05 156.03633 76.44063 156.36446Q76.84688 156.69258 77.58125 156.69258Q78.3 156.69258 78.64375 156.41133Q79.00313 156.11446 79.00313 155.7082Q79.00313 155.34883 78.69063 155.1457Q78.47188 155.00508 77.6125 154.78633Q76.45625 154.48946 76.00313 154.28633Q75.56563 154.06758 75.33125 153.69258Q75.09688 153.31758 75.09688 152.84883Q75.09688 152.44258 75.28438 152.0832Q75.47188 151.72383 75.8 151.48946Q76.05 151.31758 76.47188 151.19258Q76.89375 151.06758 77.39375 151.06758Q78.1125 151.06758 78.65938 151.28633Q79.22188 151.48946 79.4875 151.84883Q79.75313 152.2082 79.84688 152.80196L78.81563 152.94258Q78.75313 152.47383 78.40938 152.2082Q78.08125 151.92696 77.45625 151.92696Q76.7375 151.92696 76.425 152.17696Q76.1125 152.41133 76.1125 152.73946Q76.1125 152.94258 76.2375 153.09883Q76.37813 153.2707 76.64375 153.38008Q76.8 153.44258 77.58125 153.6457Q78.70625 153.9582 79.14375 154.1457Q79.58125 154.3332 79.83125 154.69258Q80.08125 155.05196 80.08125 155.59883Q80.08125 156.13008 79.76875 156.59883Q79.47188 157.05196 78.89375 157.31758Q78.31563 157.56758 77.58125 157.56758Q76.3625 157.56758 75.72188 157.06758Q75.09688 156.55196 74.925 155.56758ZM86.59688 155.42696L87.69063 155.55196Q87.44063 156.50508 86.7375 157.03633Q86.03438 157.56758 84.95625 157.56758Q83.59688 157.56758 82.78438 156.72383Q81.9875 155.88008 81.9875 154.36446Q81.9875 152.80196 82.8 151.94258Q83.6125 151.06758 84.89375 151.06758Q86.14375 151.06758 86.925 151.91133Q87.72188 152.75508 87.72188 154.30196Q87.72188 154.3957 87.72188 154.5832L83.08125 154.5832Q83.14375 155.61446 83.65938 156.16133Q84.175 156.69258 84.95625 156.69258Q85.53438 156.69258 85.94063 156.3957Q86.3625 156.0832 86.59688 155.42696ZM83.14375 153.72383L86.6125 153.72383Q86.55 152.92696 86.22188 152.53633Q85.70625 151.92696 84.90938 151.92696Q84.175 151.92696 83.675 152.41133Q83.19063 152.8957 83.14375 153.72383ZM89.33125 157.42696L89.33125 151.2082L90.28438 151.2082L90.28438 152.1457Q90.64375 151.48946 90.94063 151.28633Q91.25313 151.06758 91.62813 151.06758Q92.15938 151.06758 92.70625 151.3957L92.34688 152.38008Q91.95625 152.1457 91.58125 152.1457Q91.22188 152.1457 90.94063 152.36446Q90.675 152.56758 90.56563 152.94258Q90.37813 153.50508 90.37813 154.16133L90.37813 157.42696L89.33125 157.42696ZM93.6125 157.42696L93.6125 156.22383L94.81563 156.22383L94.81563 157.42696Q94.81563 158.0832 94.58125 158.48946Q94.34688 158.91133 93.84688 159.13008L93.55 158.67696Q93.87813 158.53633 94.03438 158.23946Q94.19063 157.9582 94.22188 157.42696L93.6125 157.42696ZM99.05 155.16133L100.1125 155.0207Q100.28438 155.91133 100.72188 156.31758Q101.15938 156.7082 101.78438 156.7082Q102.53438 156.7082 103.05 156.19258Q103.56563 155.67696 103.56563 154.91133Q103.56563 154.19258 103.08125 153.72383Q102.6125 153.23946 101.87813 153.23946Q101.58125 153.23946 101.12813 153.36446L101.25313 152.42696Q101.3625 152.44258 101.425 152.44258Q102.09688 152.44258 102.62813 152.09883Q103.175 151.73946 103.175 151.00508Q103.175 150.42696 102.78438 150.05196Q102.39375 149.66133 101.76875 149.66133Q101.15938 149.66133 100.7375 150.05196Q100.33125 150.44258 100.22188 151.2082L99.15938 151.0207Q99.34688 149.97383 100.03438 149.3957Q100.72188 148.80196 101.7375 148.80196Q102.44063 148.80196 103.03438 149.11446Q103.62813 149.41133 103.94063 149.92696Q104.25313 150.44258 104.25313 151.03633Q104.25313 151.5832 103.95625 152.05196Q103.65938 152.50508 103.08125 152.7707Q103.83125 152.94258 104.25313 153.50508Q104.675 154.05196 104.675 154.8957Q104.675 156.0207 103.84688 156.80196Q103.03438 157.5832 101.78438 157.5832Q100.65938 157.5832 99.90938 156.91133Q99.15938 156.22383 99.05 155.16133ZM106.05 153.19258Q106.05 151.66133 106.3625 150.73946Q106.675 149.80196 107.28438 149.30196Q107.90938 148.80196 108.84688 148.80196Q109.53438 148.80196 110.05 149.0832Q110.58125 149.36446 110.925 149.8957Q111.26875 150.41133 111.45625 151.16133Q111.64375 151.91133 111.64375 153.19258Q111.64375 154.7082 111.33125 155.63008Q111.03438 156.55196 110.40938 157.06758Q109.8 157.56758 108.84688 157.56758Q107.6125 157.56758 106.89375 156.67696Q106.05 155.61446 106.05 153.19258ZM107.12813 153.19258Q107.12813 155.30196 107.62813 156.00508Q108.12813 156.7082 108.84688 156.7082Q109.58125 156.7082 110.06563 156.00508Q110.56563 155.30196 110.56563 153.19258Q110.56563 151.06758 110.06563 150.38008Q109.58125 149.67696 108.83125 149.67696Q108.1125 149.67696 107.675 150.28633Q107.12813 151.06758 107.12813 153.19258ZM113.05 153.19258Q113.05 151.66133 113.3625 150.73946Q113.675 149.80196 114.28438 149.30196Q114.90938 148.80196 115.84688 148.80196Q116.53438 148.80196 117.05 149.0832Q117.58125 149.36446 117.925 149.8957Q118.26875 150.41133 118.45625 151.16133Q118.64375 151.91133 118.64375 153.19258Q118.64375 154.7082 118.33125 155.63008Q118.03438 156.55196 117.40938 157.06758Q116.8 157.56758 115.84688 157.56758Q114.6125 157.56758 113.89375 156.67696Q113.05 155.61446 113.05 153.19258ZM114.12813 153.19258Q114.12813 155.30196 114.62813 156.00508Q115.12813 156.7082 115.84688 156.7082Q116.58125 156.7082 117.06563 156.00508Q117.56563 155.30196 117.56563 153.19258Q117.56563 151.06758 117.06563 150.38008Q116.58125 149.67696 115.83125 149.67696Q115.1125 149.67696 114.675 150.28633Q114.12813 151.06758 114.12813 153.19258ZM123.31563 157.42696L123.31563 148.8332L124.37813 148.8332L124.37813 157.42696L123.31563 157.42696ZM125.95625 154.31758Q125.95625 152.5832 126.90938 151.75508Q127.70625 151.06758 128.8625 151.06758Q130.14375 151.06758 130.95625 151.91133Q131.78438 152.73946 131.78438 154.22383Q131.78438 155.42696 131.425 156.11446Q131.06563 156.80196 130.3625 157.19258Q129.675 157.56758 128.8625 157.56758Q127.56563 157.56758 126.75313 156.73946Q125.95625 155.8957 125.95625 154.31758ZM127.03438 154.31758Q127.03438 155.50508 127.55 156.09883Q128.08125 156.69258 128.8625 156.69258Q129.65938 156.69258 130.175 156.09883Q130.69063 155.50508 130.69063 154.28633Q130.69063 153.13008 130.15938 152.53633Q129.64375 151.94258 128.8625 151.94258Q128.08125 151.94258 127.55 152.53633Q127.03438 153.11446 127.03438 154.31758ZM132.95625 154.31758Q132.95625 152.5832 133.90938 151.75508Q134.70625 151.06758 135.8625 151.06758Q137.14375 151.06758 137.95625 151.91133Q138.78438 152.73946 138.78438 154.22383Q138.78438 155.42696 138.425 156.11446Q138.06563 156.80196 137.3625 157.19258Q136.675 157.56758 135.8625 157.56758Q134.56563 157.56758 133.75313 156.73946Q132.95625 155.8957 132.95625 154.31758ZM134.03438 154.31758Q134.03438 155.50508 134.55 156.09883Q135.08125 156.69258 135.8625 156.69258Q136.65938 156.69258 137.175 156.09883Q137.69063 155.50508 137.69063 154.28633Q137.69063 153.13008 137.15938 152.53633Q136.64375 151.94258 135.8625 151.94258Q135.08125 151.94258 134.55 152.53633Q134.03438 153.11446 134.03438 154.31758ZM140.34688 159.81758L140.34688 151.2082L141.3 151.2082L141.3 152.00508Q141.64375 151.53633 142.06563 151.30196Q142.50313 151.06758 143.1125 151.06758Q143.90938 151.06758 144.51875 151.47383Q145.12813 151.88008 145.425 152.63008Q145.7375 153.38008 145.7375 154.2707Q145.7375 155.22383 145.39375 155.98946Q145.06563 156.75508 144.40938 157.16133Q143.75313 157.56758 143.03438 157.56758Q142.50313 157.56758 142.08125 157.34883Q141.65938 157.11446 141.39375 156.78633L141.39375 159.81758L140.34688 159.81758ZM141.3 154.34883Q141.3 155.55196 141.78438 156.13008Q142.26875 156.69258 142.95625 156.69258Q143.65938 156.69258 144.15938 156.09883Q144.65938 155.50508 144.65938 154.25508Q144.65938 153.06758 144.175 152.48946Q143.69063 151.8957 143.00313 151.8957Q142.33125 151.8957 141.81563 152.5207Q141.3 153.1457 141.3 154.34883ZM146.925 155.56758L147.95625 155.41133Q148.05 156.03633 148.44063 156.36446Q148.84688 156.69258 149.58125 156.69258Q150.3 156.69258 150.64375 156.41133Q151.00313 156.11446 151.00313 155.7082Q151.00313 155.34883 150.69063 155.1457Q150.47188 155.00508 149.6125 154.78633Q148.45625 154.48946 148.00313 154.28633Q147.56563 154.06758 147.33125 153.69258Q147.09688 153.31758 147.09688 152.84883Q147.09688 152.44258 147.28438 152.0832Q147.47188 151.72383 147.8 151.48946Q148.05 151.31758 148.47188 151.19258Q148.89375 151.06758 149.39375 151.06758Q150.1125 151.06758 150.65938 151.28633Q151.22188 151.48946 151.4875 151.84883Q151.75313 152.2082 151.84688 152.80196L150.81563 152.94258Q150.75313 152.47383 150.40938 152.2082Q150.08125 151.92696 149.45625 151.92696Q148.7375 151.92696 148.425 152.17696Q148.1125 152.41133 148.1125 152.73946Q148.1125 152.94258 148.2375 153.09883Q148.37813 153.2707 148.64375 153.38008Q148.8 153.44258 149.58125 153.6457Q150.70625 153.9582 151.14375 154.1457Q151.58125 154.3332 151.83125 154.69258Q152.08125 155.05196 152.08125 155.59883Q152.08125 156.13008 151.76875 156.59883Q151.47188 157.05196 150.89375 157.31758Q150.31563 157.56758 149.58125 157.56758Q148.3625 157.56758 147.72188 157.06758Q147.09688 156.55196 146.925 155.56758Z" fill-rule="nonzero"/><path fill="#000000" d="M51.05 262.04077L52.1125 261.90015Q52.284374 262.79077 52.721874 263.19702Q53.159374 263.58765 53.784374 263.58765Q54.534374 263.58765 55.05 263.07202Q55.565624 262.5564 55.565624 261.79077Q55.565624 261.07202 55.08125 260.60327Q54.6125 260.1189 53.878124 260.1189Q53.58125 260.1189 53.128124 260.2439L53.253124 259.3064Q53.3625 259.32202 53.425 259.32202Q54.096874 259.32202 54.628124 258.97827Q55.175 258.6189 55.175 257.88452Q55.175 257.3064 54.784374 256.9314Q54.39375 256.54077 53.76875 256.54077Q53.159374 256.54077 52.7375 256.9314Q52.33125 257.32202 52.221874 258.08765L51.159374 257.90015Q51.346874 256.85327 52.034374 256.27515Q52.721874 255.6814 53.7375 255.6814Q54.440624 255.6814 55.034374 255.9939Q55.628124 256.29077 55.940624 256.8064Q56.253124 257.32202 56.253124 257.91577Q56.253124 258.46265 55.95625 258.9314Q55.659374 259.38452 55.08125 259.65015Q55.83125 259.82202 56.253124 260.38452Q56.675 260.9314 56.675 261.77515Q56.675 262.90015 55.846874 263.6814Q55.034374 264.46265 53.784374 264.46265Q52.659374 264.46265 51.909374 263.79077Q51.159374 263.10327 51.05 262.04077ZM65.425 264.3064L65.425 263.38452Q64.69063 264.44702 63.440624 264.44702Q62.89375 264.44702 62.409374 264.2439Q61.940624 264.02515 61.70625 263.71265Q61.471874 263.38452 61.378124 262.91577Q61.315624 262.6189 61.315624 261.9314L61.315624 258.08765L62.378124 258.08765L62.378124 261.54077Q62.378124 262.35327 62.440624 262.65015Q62.534374 263.0564 62.846874 263.3064Q63.175 263.54077 63.659374 263.54077Q64.12813 263.54077 64.53438 263.3064Q64.95625 263.0564 65.12813 262.63452Q65.31563 262.21265 65.31563 261.41577L65.31563 258.08765L66.3625 258.08765L66.3625 264.3064L65.425 264.3064ZM67.925 262.44702L68.95625 262.29077Q69.05 262.91577 69.44063 263.2439Q69.84688 263.57202 70.58125 263.57202Q71.3 263.57202 71.64375 263.29077Q72.00313 262.9939 72.00313 262.58765Q72.00313 262.22827 71.69063 262.02515Q71.47188 261.88452 70.6125 261.66577Q69.45625 261.3689 69.00313 261.16577Q68.56563 260.94702 68.33125 260.57202Q68.09688 260.19702 68.09688 259.72827Q68.09688 259.32202 68.28438 258.96265Q68.47188 258.60327 68.8 258.3689Q69.05 258.19702 69.47188 258.07202Q69.89375 257.94702 70.39375 257.94702Q71.1125 257.94702 71.65938 258.16577Q72.22188 258.3689 72.4875 258.72827Q72.75313 259.08765 72.84688 259.6814L71.81563 259.82202Q71.75313 259.35327 71.40938 259.08765Q71.08125 258.8064 70.45625 258.8064Q69.7375 258.8064 69.425 259.0564Q69.1125 259.29077 69.1125 259.6189Q69.1125 259.82202 69.2375 259.97827Q69.37813 260.15015 69.64375 260.25952Q69.8 260.32202 70.58125 260.52515Q71.70625 260.83765 72.14375 261.02515Q72.58125 261.21265 72.83125 261.57202Q73.08125 261.9314 73.08125 262.47827Q73.08125 263.00952 72.76875 263.47827Q72.47188 263.9314 71.89375 264.19702Q71.31563 264.44702 70.58125 264.44702Q69.3625 264.44702 68.72188 263.94702Q68.09688 263.4314 67.925 262.44702ZM79.59688 262.3064L80.69063 262.4314Q80.44063 263.38452 79.7375 263.91577Q79.03438 264.44702 77.95625 264.44702Q76.59688 264.44702 75.78438 263.60327Q74.9875 262.75952 74.9875 261.2439Q74.9875 259.6814 75.8 258.82202Q76.6125 257.94702 77.89375 257.94702Q79.14375 257.94702 79.925 258.79077Q80.72188 259.63452 80.72188 261.1814Q80.72188 261.27515 80.72188 261.46265L76.08125 261.46265Q76.14375 262.4939 76.65938 263.04077Q77.175 263.57202 77.95625 263.57202Q78.53438 263.57202 78.94063 263.27515Q79.3625 262.96265 79.59688 262.3064ZM76.14375 260.60327L79.6125 260.60327Q79.55 259.8064 79.22188 259.41577Q78.70625 258.8064 77.90938 258.8064Q77.175 258.8064 76.675 259.29077Q76.19063 259.77515 76.14375 260.60327ZM82.33125 264.3064L82.33125 258.08765L83.28438 258.08765L83.28438 259.02515Q83.64375 258.3689 83.94063 258.16577Q84.25313 257.94702 84.62813 257.94702Q85.15938 257.94702 85.70625 258.27515L85.34688 259.25952Q84.95625 259.02515 84.58125 259.02515Q84.22188 259.02515 83.94063 259.2439Q83.675 259.44702 83.56563 259.82202Q83.37813 260.38452 83.37813 261.04077L83.37813 264.3064L82.33125 264.3064ZM85.925 262.44702L86.95625 262.29077Q87.05 262.91577 87.44063 263.2439Q87.84688 263.57202 88.58125 263.57202Q89.3 263.57202 89.64375 263.29077Q90.00313 262.9939 90.00313 262.58765Q90.00313 262.22827 89.69063 262.02515Q89.47188 261.88452 88.6125 261.66577Q87.45625 261.3689 87.00313 261.16577Q86.56563 260.94702 86.33125 260.57202Q86.09688 260.19702 86.09688 259.72827Q86.09688 259.32202 86.28438 258.96265Q86.47188 258.60327 86.8 258.3689Q87.05 258.19702 87.47188 258.07202Q87.89375 257.94702 88.39375 257.94702Q89.1125 257.94702 89.65938 258.16577Q90.22188 258.3689 90.4875 258.72827Q90.75313 259.08765 90.84688 259.6814L89.81563 259.82202Q89.75313 259.35327 89.40938 259.08765Q89.08125 258.8064 88.45625 258.8064Q87.7375 258.8064 87.425 259.0564Q87.1125 259.29077 87.1125 259.6189Q87.1125 259.82202 87.2375 259.97827Q87.37813 260.15015 87.64375 260.25952Q87.8 260.32202 88.58125 260.52515Q89.70625 260.83765 90.14375 261.02515Q90.58125 261.21265 90.83125 261.57202Q91.08125 261.9314 91.08125 262.47827Q91.08125 263.00952 90.76875 263.47827Q90.47188 263.9314 89.89375 264.19702Q89.31563 264.44702 88.58125 264.44702Q87.3625 264.44702 86.72188 263.94702Q86.09688 263.4314 85.925 262.44702ZM93.6125 264.3064L93.6125 263.10327L94.81563 263.10327L94.81563 264.3064Q94.81563 264.96265 94.58125 265.3689Q94.34688 265.79077 93.84688 266.00952L93.55 265.5564Q93.87813 265.41577 94.03438 265.1189Q94.19063 264.83765 94.22188 264.3064L93.6125 264.3064ZM103.01875 264.3064L101.97188 264.3064L101.97188 257.58765Q101.58125 257.94702 100.95625 258.32202Q100.34688 258.6814 99.8625 258.85327L99.8625 257.83765Q100.7375 257.41577 101.39375 256.83765Q102.06563 256.2439 102.34688 255.6814L103.01875 255.6814L103.01875 264.3064ZM106.05 260.07202Q106.05 258.54077 106.3625 257.6189Q106.675 256.6814 107.28438 256.1814Q107.90938 255.6814 108.84688 255.6814Q109.53438 255.6814 110.05 255.96265Q110.58125 256.2439 110.925 256.77515Q111.26875 257.29077 111.45625 258.04077Q111.64375 258.79077 111.64375 260.07202Q111.64375 261.58765 111.33125 262.50952Q111.03438 263.4314 110.40938 263.94702Q109.8 264.44702 108.84688 264.44702Q107.6125 264.44702 106.89375 263.5564Q106.05 262.4939 106.05 260.07202ZM107.12813 260.07202Q107.12813 262.1814 107.62813 262.88452Q108.12813 263.58765 108.84688 263.58765Q109.58125 263.58765 110.06563 262.88452Q110.56563 262.1814 110.56563 260.07202Q110.56563 257.94702 110.06563 257.25952Q109.58125 256.5564 108.83125 256.5564Q108.1125 256.5564 107.675 257.16577Q107.12813 257.94702 107.12813 260.07202ZM113.05 260.07202Q113.05 258.54077 113.3625 257.6189Q113.675 256.6814 114.28438 256.1814Q114.90938 255.6814 115.84688 255.6814Q116.53438 255.6814 117.05 255.96265Q117.58125 256.2439 117.925 256.77515Q118.26875 257.29077 118.45625 258.04077Q118.64375 258.79077 118.64375 260.07202Q118.64375 261.58765 118.33125 262.50952Q118.03438 263.4314 117.40938 263.94702Q116.8 264.44702 115.84688 264.44702Q114.6125 264.44702 113.89375 263.5564Q113.05 262.4939 113.05 260.07202ZM114.12813 260.07202Q114.12813 262.1814 114.62813 262.88452Q115.12813 263.58765 115.84688 263.58765Q116.58125 263.58765 117.06563 262.88452Q117.56563 262.1814 117.56563 260.07202Q117.56563 257.94702 117.06563 257.25952Q116.58125 256.5564 115.83125 256.5564Q115.1125 256.5564 114.675 257.16577Q114.12813 257.94702 114.12813 260.07202ZM123.31563 264.3064L123.31563 255.71265L124.37813 255.71265L124.37813 264.3064L123.31563 264.3064ZM125.95625 261.19702Q125.95625 259.46265 126.90938 258.63452Q127.70625 257.94702 128.8625 257.94702Q130.14375 257.94702 130.95625 258.79077Q131.78438 259.6189 131.78438 261.10327Q131.78438 262.3064 131.425 262.9939Q131.06563 263.6814 130.3625 264.07202Q129.675 264.44702 128.8625 264.44702Q127.56563 264.44702 126.75313 263.6189Q125.95625 262.77515 125.95625 261.19702ZM127.03438 261.19702Q127.03438 262.38452 127.55 262.97827Q128.08125 263.57202 128.8625 263.57202Q129.65938 263.57202 130.175 262.97827Q130.69063 262.38452 130.69063 261.16577Q130.69063 260.00952 130.15938 259.41577Q129.64375 258.82202 128.8625 258.82202Q128.08125 258.82202 127.55 259.41577Q127.03438 259.9939 127.03438 261.19702ZM132.95625 261.19702Q132.95625 259.46265 133.90938 258.63452Q134.70625 257.94702 135.8625 257.94702Q137.14375 257.94702 137.95625 258.79077Q138.78438 259.6189 138.78438 261.10327Q138.78438 262.3064 138.425 262.9939Q138.06563 263.6814 137.3625 264.07202Q136.675 264.44702 135.8625 264.44702Q134.56563 264.44702 133.75313 263.6189Q132.95625 262.77515 132.95625 261.19702ZM134.03438 261.19702Q134.03438 262.38452 134.55 262.97827Q135.08125 263.57202 135.8625 263.57202Q136.65938 263.57202 137.175 262.97827Q137.69063 262.38452 137.69063 261.16577Q137.69063 260.00952 137.15938 259.41577Q136.64375 258.82202 135.8625 258.82202Q135.08125 258.82202 134.55 259.41577Q134.03438 259.9939 134.03438 261.19702ZM140.34688 266.69702L140.34688 258.08765L141.3 258.08765L141.3 258.88452Q141.64375 258.41577 142.06563 258.1814Q142.50313 257.94702 143.1125 257.94702Q143.90938 257.94702 144.51875 258.35327Q145.12813 258.75952 145.425 259.50952Q145.7375 260.25952 145.7375 261.15015Q145.7375 262.10327 145.39375 262.8689Q145.06563 263.63452 144.40938 264.04077Q143.75313 264.44702 143.03438 264.44702Q142.50313 264.44702 142.08125 264.22827Q141.65938 263.9939 141.39375 263.66577L141.39375 266.69702L140.34688 266.69702ZM141.3 261.22827Q141.3 262.4314 141.78438 263.00952Q142.26875 263.57202 142.95625 263.57202Q143.65938 263.57202 144.15938 262.97827Q144.65938 262.38452 144.65938 261.13452Q144.65938 259.94702 144.175 259.3689Q143.69063 258.77515 143.00313 258.77515Q142.33125 258.77515 141.81563 259.40015Q141.3 260.02515 141.3 261.22827ZM146.925 262.44702L147.95625 262.29077Q148.05 262.91577 148.44063 263.2439Q148.84688 263.57202 149.58125 263.57202Q150.3 263.57202 150.64375 263.29077Q151.00313 262.9939 151.00313 262.58765Q151.00313 262.22827 150.69063 262.02515Q150.47188 261.88452 149.6125 261.66577Q148.45625 261.3689 148.00313 261.16577Q147.56563 260.94702 147.33125 260.57202Q147.09688 260.19702 147.09688 259.72827Q147.09688 259.32202 147.28438 258.96265Q147.47188 258.60327 147.8 258.3689Q148.05 258.19702 148.47188 258.07202Q148.89375 257.94702 149.39375 257.94702Q150.1125 257.94702 150.65938 258.16577Q151.22188 258.3689 151.4875 258.72827Q151.75313 259.08765 151.84688 259.6814L150.81563 259.82202Q150.75313 259.35327 150.40938 259.08765Q150.08125 258.8064 149.45625 258.8064Q148.7375 258.8064 148.425 259.0564Q148.1125 259.29077 148.1125 259.6189Q148.1125 259.82202 148.2375 259.97827Q148.37813 260.15015 148.64375 260.25952Q148.8 260.32202 149.58125 260.52515Q150.70625 260.83765 151.14375 261.02515Q151.58125 261.21265 151.83125 261.57202Q152.08125 261.9314 152.08125 262.47827Q152.08125 263.00952 151.76875 263.47827Q151.47188 263.9314 150.89375 264.19702Q150.31563 264.44702 149.58125 264.44702Q148.3625 264.44702 147.72188 263.94702Q147.09688 263.4314 146.925 262.44702Z" fill-rule="nonzero"/><path fill="#000000" d="M156.55 345.21564Q156.55 343.6844 156.8625 342.7625Q157.175 341.825 157.78438 341.325Q158.40938 340.825 159.34688 340.825Q160.03438 340.825 160.55 341.10626Q161.08125 341.3875 161.425 341.91876Q161.76875 342.4344 161.95625 343.1844Q162.14375 343.9344 162.14375 345.21564Q162.14375 346.73126 161.83125 347.65314Q161.53438 348.575 160.90938 349.09064Q160.3 349.59064 159.34688 349.59064Q158.1125 349.59064 157.39375 348.7Q156.55 347.6375 156.55 345.21564ZM157.62813 345.21564Q157.62813 347.325 158.12813 348.02814Q158.62813 348.73126 159.34688 348.73126Q160.08125 348.73126 160.56563 348.02814Q161.06563 347.325 161.06563 345.21564Q161.06563 343.09064 160.56563 342.40314Q160.08125 341.7 159.33125 341.7Q158.6125 341.7 158.175 342.3094Q157.62813 343.09064 157.62813 345.21564Z" fill-rule="nonzero"/><path fill="#000000" d="M255.49374 349.45L254.44687 349.45L254.44687 342.73126Q254.05624 343.09064 253.43124 343.46564Q252.82187 343.825 252.3375 343.9969L252.3375 342.98126Q253.2125 342.5594 253.86874 341.98126Q254.54062 341.3875 254.82187 340.825L255.49374 340.825L255.49374 349.45ZM258.525 345.21564Q258.525 343.6844 258.8375 342.7625Q259.15 341.825 259.75937 341.325Q260.38437 340.825 261.32187 340.825Q262.00937 340.825 262.525 341.10626Q263.05624 341.3875 263.4 341.91876Q263.74374 342.4344 263.93124 343.1844Q264.11874 343.9344 264.11874 345.21564Q264.11874 346.73126 263.80624 347.65314Q263.50937 348.575 262.88437 349.09064Q262.275 349.59064 261.32187 349.59064Q260.0875 349.59064 259.36874 348.7Q258.525 347.6375 258.525 345.21564ZM259.60312 345.21564Q259.60312 347.325 260.10312 348.02814Q260.60312 348.73126 261.32187 348.73126Q262.05624 348.73126 262.54062 348.02814Q263.04062 347.325 263.04062 345.21564Q263.04062 343.09064 262.54062 342.40314Q262.05624 341.7 261.30624 341.7Q260.5875 341.7 260.15 342.3094Q259.60312 343.09064 259.60312 345.21564ZM265.525 345.21564Q265.525 343.6844 265.8375 342.7625Q266.15 341.825 266.75937 341.325Q267.38437 340.825 268.32187 340.825Q269.00937 340.825 269.525 341.10626Q270.05624 341.3875 270.4 341.91876Q270.74374 342.4344 270.93124 343.1844Q271.11874 343.9344 271.11874 345.21564Q271.11874 346.73126 270.80624 347.65314Q270.50937 348.575 269.88437 349.09064Q269.275 349.59064 268.32187 349.59064Q267.0875 349.59064 266.36874 348.7Q265.525 347.6375 265.525 345.21564ZM266.60312 345.21564Q266.60312 347.325 267.10312 348.02814Q267.60312 348.73126 268.32187 348.73126Q269.05624 348.73126 269.54062 348.02814Q270.04062 347.325 270.04062 345.21564Q270.04062 343.09064 269.54062 342.40314Q269.05624 341.7 268.30624 341.7Q267.5875 341.7 267.15 342.3094Q266.60312 343.09064 266.60312 345.21564ZM272.525 345.21564Q272.525 343.6844 272.8375 342.7625Q273.15 341.825 273.75937 341.325Q274.38437 340.825 275.32187 340.825Q276.00937 340.825 276.525 341.10626Q277.05624 341.3875 277.4 341.91876Q277.74374 342.4344 277.93124 343.1844Q278.11874 343.9344 278.11874 345.21564Q278.11874 346.73126 277.80624 347.65314Q277.50937 348.575 276.88437 349.09064Q276.275 349.59064 275.32187 349.59064Q274.0875 349.59064 273.36874 348.7Q272.525 347.6375 272.525 345.21564ZM273.60312 345.21564Q273.60312 347.325 274.10312 348.02814Q274.60312 348.73126 275.32187 348.73126Q276.05624 348.73126 276.54062 348.02814Q277.04062 347.325 277.04062 345.21564Q277.04062 343.09064 276.54062 342.40314Q276.05624 341.7 275.30624 341.7Q274.5875 341.7 274.15 342.3094Q273.60312 343.09064 273.60312 345.21564Z" fill-rule="nonzero"/><path fill="#000000" d="M362.54688 348.4344L362.54688 349.45L356.85938 349.45Q356.85938 349.075 356.98438 348.71564Q357.20312 348.1375 357.67188 347.575Q358.15625 347.0125 359.0625 346.27814Q360.46875 345.1219 360.95312 344.45Q361.45312 343.77814 361.45312 343.1844Q361.45312 342.5594 361.0 342.1375Q360.54688 341.7 359.82812 341.7Q359.0625 341.7 358.60938 342.15314Q358.15625 342.60626 358.14062 343.41876L357.0625 343.3094Q357.17188 342.09064 357.89062 341.46564Q358.625 340.825 359.85938 340.825Q361.09375 340.825 361.8125 341.5125Q362.53125 342.2 362.53125 343.21564Q362.53125 343.73126 362.3125 344.23126Q362.10938 344.71564 361.60938 345.27814Q361.125 345.825 360.0 346.77814Q359.04688 347.575 358.76562 347.8719Q358.5 348.15314 358.32812 348.4344L362.54688 348.4344ZM364.0 345.21564Q364.0 343.6844 364.3125 342.7625Q364.625 341.825 365.23438 341.325Q365.85938 340.825 366.79688 340.825Q367.48438 340.825 368.0 341.10626Q368.53125 341.3875 368.875 341.91876Q369.21875 342.4344 369.40625 343.1844Q369.59375 343.9344 369.59375 345.21564Q369.59375 346.73126 369.28125 347.65314Q368.98438 348.575 368.35938 349.09064Q367.75 349.59064 366.79688 349.59064Q365.5625 349.59064 364.84375 348.7Q364.0 347.6375 364.0 345.21564ZM365.07812 345.21564Q365.07812 347.325 365.57812 348.02814Q366.07812 348.73126 366.79688 348.73126Q367.53125 348.73126 368.01562 348.02814Q368.51562 347.325 368.51562 345.21564Q368.51562 343.09064 368.01562 342.40314Q367.53125 341.7 366.78125 341.7Q366.0625 341.7 365.625 342.3094Q365.07812 343.09064 365.07812 345.21564ZM371.0 345.21564Q371.0 343.6844 371.3125 342.7625Q371.625 341.825 372.23438 341.325Q372.85938 340.825 373.79688 340.825Q374.48438 340.825 375.0 341.10626Q375.53125 341.3875 375.875 341.91876Q376.21875 342.4344 376.40625 343.1844Q376.59375 343.9344 376.59375 345.21564Q376.59375 346.73126 376.28125 347.65314Q375.98438 348.575 375.35938 349.09064Q374.75 349.59064 373.79688 349.59064Q372.5625 349.59064 371.84375 348.7Q371.0 347.6375 371.0 345.21564ZM372.07812 345.21564Q372.07812 347.325 372.57812 348.02814Q373.07812 348.73126 373.79688 348.73126Q374.53125 348.73126 375.01562 348.02814Q375.51562 347.325 375.51562 345.21564Q375.51562 343.09064 375.01562 342.40314Q374.53125 341.7 373.78125 341.7Q373.0625 341.7 372.625 342.3094Q372.07812 343.09064 372.07812 345.21564ZM378.0 345.21564Q378.0 343.6844 378.3125 342.7625Q378.625 341.825 379.23438 341.325Q379.85938 340.825 380.79688 340.825Q381.48438 340.825 382.0 341.10626Q382.53125 341.3875 382.875 341.91876Q383.21875 342.4344 383.40625 343.1844Q383.59375 343.9344 383.59375 345.21564Q383.59375 346.73126 383.28125 347.65314Q382.98438 348.575 382.35938 349.09064Q381.75 349.59064 380.79688 349.59064Q379.5625 349.59064 378.84375 348.7Q378.0 347.6375 378.0 345.21564ZM379.07812 345.21564Q379.07812 347.325 379.57812 348.02814Q380.07812 348.73126 380.79688 348.73126Q381.53125 348.73126 382.01562 348.02814Q382.51562 347.325 382.51562 345.21564Q382.51562 343.09064 382.01562 342.40314Q381.53125 341.7 380.78125 341.7Q380.0625 341.7 379.625 342.3094Q379.07812 343.09064 379.07812 345.21564Z" fill-rule="nonzero"/><path fill="#000000" d="M462.475 347.1844L463.5375 347.04376Q463.70938 347.9344 464.14688 348.34064Q464.58438 348.73126 465.20938 348.73126Q465.95938 348.73126 466.475 348.21564Q466.99063 347.7 466.99063 346.9344Q466.99063 346.21564 466.50626 345.7469Q466.0375 345.2625 465.30313 345.2625Q465.00626 345.2625 464.55313 345.3875L464.67813 344.45Q464.7875 344.46564 464.85 344.46564Q465.52188 344.46564 466.05313 344.1219Q466.6 343.7625 466.6 343.02814Q466.6 342.45 466.20938 342.075Q465.81876 341.6844 465.19376 341.6844Q464.58438 341.6844 464.1625 342.075Q463.75626 342.46564 463.64688 343.23126L462.58438 343.04376Q462.77188 341.9969 463.45938 341.41876Q464.14688 340.825 465.1625 340.825Q465.86563 340.825 466.45938 341.1375Q467.05313 341.4344 467.36563 341.95Q467.67813 342.46564 467.67813 343.0594Q467.67813 343.60626 467.38126 344.075Q467.08438 344.52814 466.50626 344.79376Q467.25626 344.96564 467.67813 345.52814Q468.1 346.075 468.1 346.91876Q468.1 348.04376 467.27188 348.825Q466.45938 349.60626 465.20938 349.60626Q464.08438 349.60626 463.33438 348.9344Q462.58438 348.2469 462.475 347.1844ZM469.475 345.21564Q469.475 343.6844 469.7875 342.7625Q470.1 341.825 470.70938 341.325Q471.33438 340.825 472.27188 340.825Q472.95938 340.825 473.475 341.10626Q474.00626 341.3875 474.35 341.91876Q474.69376 342.4344 474.88126 343.1844Q475.06876 343.9344 475.06876 345.21564Q475.06876 346.73126 474.75626 347.65314Q474.45938 348.575 473.83438 349.09064Q473.225 349.59064 472.27188 349.59064Q471.0375 349.59064 470.31876 348.7Q469.475 347.6375 469.475 345.21564ZM470.55313 345.21564Q470.55313 347.325 471.05313 348.02814Q471.55313 348.73126 472.27188 348.73126Q473.00626 348.73126 473.49063 348.02814Q473.99063 347.325 473.99063 345.21564Q473.99063 343.09064 473.49063 342.40314Q473.00626 341.7 472.25626 341.7Q471.5375 341.7 471.1 342.3094Q470.55313 343.09064 470.55313 345.21564ZM476.475 345.21564Q476.475 343.6844 476.7875 342.7625Q477.1 341.825 477.70938 341.325Q478.33438 340.825 479.27188 340.825Q479.95938 340.825 480.475 341.10626Q481.00626 341.3875 481.35 341.91876Q481.69376 342.4344 481.88126 343.1844Q482.06876 343.9344 482.06876 345.21564Q482.06876 346.73126 481.75626 347.65314Q481.45938 348.575 480.83438 349.09064Q480.225 349.59064 479.27188 349.59064Q478.0375 349.59064 477.31876 348.7Q476.475 347.6375 476.475 345.21564ZM477.55313 345.21564Q477.55313 347.325 478.05313 348.02814Q478.55313 348.73126 479.27188 348.73126Q480.00626 348.73126 480.49063 348.02814Q480.99063 347.325 480.99063 345.21564Q480.99063 343.09064 480.49063 342.40314Q480.00626 341.7 479.25626 341.7Q478.5375 341.7 478.1 342.3094Q477.55313 343.09064 477.55313 345.21564ZM483.475 345.21564Q483.475 343.6844 483.7875 342.7625Q484.1 341.825 484.70938 341.325Q485.33438 340.825 486.27188 340.825Q486.95938 340.825 487.475 341.10626Q488.00626 341.3875 488.35 341.91876Q488.69376 342.4344 488.88126 343.1844Q489.06876 343.9344 489.06876 345.21564Q489.06876 346.73126 488.75626 347.65314Q488.45938 348.575 487.83438 349.09064Q487.225 349.59064 486.27188 349.59064Q485.0375 349.59064 484.31876 348.7Q483.475 347.6375 483.475 345.21564ZM484.55313 345.21564Q484.55313 347.325 485.05313 348.02814Q485.55313 348.73126 486.27188 348.73126Q487.00626 348.73126 487.49063 348.02814Q487.99063 347.325 487.99063 345.21564Q487.99063 343.09064 487.49063 342.40314Q487.00626 341.7 486.25626 341.7Q485.5375 341.7 485.1 342.3094Q484.55313 343.09064 484.55313 345.21564Z" fill-rule="nonzero"/><path fill="#000000" d="M571.325 349.45L571.325 347.3875L567.60626 347.3875L567.60626 346.41876L571.52814 340.85626L572.3875 340.85626L572.3875 346.41876L573.54376 346.41876L573.54376 347.3875L572.3875 347.3875L572.3875 349.45L571.325 349.45ZM571.325 346.41876L571.325 342.5594L568.6375 346.41876L571.325 346.41876ZM574.95 345.21564Q574.95 343.6844 575.2625 342.7625Q575.575 341.825 576.1844 341.325Q576.8094 340.825 577.7469 340.825Q578.4344 340.825 578.95 341.10626Q579.48126 341.3875 579.825 341.91876Q580.16876 342.4344 580.35626 343.1844Q580.54376 343.9344 580.54376 345.21564Q580.54376 346.73126 580.23126 347.65314Q579.9344 348.575 579.3094 349.09064Q578.7 349.59064 577.7469 349.59064Q576.5125 349.59064 575.79376 348.7Q574.95 347.6375 574.95 345.21564ZM576.02814 345.21564Q576.02814 347.325 576.52814 348.02814Q577.02814 348.73126 577.7469 348.73126Q578.48126 348.73126 578.96564 348.02814Q579.46564 347.325 579.46564 345.21564Q579.46564 343.09064 578.96564 342.40314Q578.48126 341.7 577.73126 341.7Q577.0125 341.7 576.575 342.3094Q576.02814 343.09064 576.02814 345.21564ZM581.95 345.21564Q581.95 343.6844 582.2625 342.7625Q582.575 341.825 583.1844 341.325Q583.8094 340.825 584.7469 340.825Q585.4344 340.825 585.95 341.10626Q586.48126 341.3875 586.825 341.91876Q587.16876 342.4344 587.35626 343.1844Q587.54376 343.9344 587.54376 345.21564Q587.54376 346.73126 587.23126 347.65314Q586.9344 348.575 586.3094 349.09064Q585.7 349.59064 584.7469 349.59064Q583.5125 349.59064 582.79376 348.7Q581.95 347.6375 581.95 345.21564ZM583.02814 345.21564Q583.02814 347.325 583.52814 348.02814Q584.02814 348.73126 584.7469 348.73126Q585.48126 348.73126 585.96564 348.02814Q586.46564 347.325 586.46564 345.21564Q586.46564 343.09064 585.96564 342.40314Q585.48126 341.7 584.73126 341.7Q584.0125 341.7 583.575 342.3094Q583.02814 343.09064 583.02814 345.21564ZM588.95 345.21564Q588.95 343.6844 589.2625 342.7625Q589.575 341.825 590.1844 341.325Q590.8094 340.825 591.7469 340.825Q592.4344 340.825 592.95 341.10626Q593.48126 341.3875 593.825 341.91876Q594.16876 342.4344 594.35626 343.1844Q594.54376 343.9344 594.54376 345.21564Q594.54376 346.73126 594.23126 347.65314Q593.9344 348.575 593.3094 349.09064Q592.7 349.59064 591.7469 349.59064Q590.5125 349.59064 589.79376 348.7Q588.95 347.6375 588.95 345.21564ZM590.02814 345.21564Q590.02814 347.325 590.52814 348.02814Q591.02814 348.73126 591.7469 348.73126Q592.48126 348.73126 592.96564 348.02814Q593.46564 347.325 593.46564 345.21564Q593.46564 343.09064 592.96564 342.40314Q592.48126 341.7 591.73126 341.7Q591.0125 341.7 590.575 342.3094Q590.02814 343.09064 590.02814 345.21564Z" fill-rule="nonzero"/><path fill="#4285f4" d="M218.5 56.916668C218.5 56.364384 218.94771 55.916668 219.5 55.916668L229.5 55.916668C230.05229 55.916668 230.5 56.364384 230.5 56.916668L230.5 66.916664C230.5 67.46895 230.05229 67.916664 229.5 67.916664L219.5 67.916664C218.94771 67.916664 218.5 67.46895 218.5 66.916664Z" fill-rule="nonzero"/><path fill="#1a1a1a" d="M241.59375 64.979164L241.75 65.90104Q241.29688 65.99479 240.95312 65.99479Q240.375 65.99479 240.0625 65.822914Q239.75 65.635414 239.60938 65.33854Q239.48438 65.041664 239.48438 64.08854L239.48438 60.510414L238.71875 60.510414L238.71875 59.697914L239.48438 59.697914L239.48438 58.15104L240.53125 57.52604L240.53125 59.697914L241.59375 59.697914L241.59375 60.510414L240.53125 60.510414L240.53125 64.15104Q240.53125 64.604164 240.57812 64.729164Q240.64062 64.854164 240.76562 64.93229Q240.89062 65.010414 241.125 65.010414Q241.3125 65.010414 241.59375 64.979164ZM242.0 63.65104L243.0625 63.510414Q243.23438 64.40104 243.67188 64.80729Q244.10938 65.197914 244.73438 65.197914Q245.48438 65.197914 246.0 64.68229Q246.51562 64.166664 246.51562 63.40104Q246.51562 62.68229 246.03125 62.21354Q245.5625 61.729164 244.82812 61.729164Q244.53125 61.729164 244.07812 61.854164L244.20312 60.916664Q244.3125 60.93229 244.375 60.93229Q245.04688 60.93229 245.57812 60.58854Q246.125 60.229164 246.125 59.49479Q246.125 58.916664 245.73438 58.541664Q245.34375 58.15104 244.71875 58.15104Q244.10938 58.15104 243.6875 58.541664Q243.28125 58.93229 243.17188 59.697914L242.10938 59.510414Q242.29688 58.46354 242.98438 57.885414Q243.67188 57.291664 244.6875 57.291664Q245.39062 57.291664 245.98438 57.604164Q246.57812 57.90104 246.89062 58.416664Q247.20312 58.93229 247.20312 59.52604Q247.20312 60.072914 246.90625 60.541664Q246.60938 60.99479 246.03125 61.260414Q246.78125 61.43229 247.20312 61.99479Q247.625 62.541664 247.625 63.385414Q247.625 64.510414 246.79688 65.291664Q245.98438 66.072914 244.73438 66.072914Q243.60938 66.072914 242.85938 65.40104Q242.10938 64.71354 242.0 63.65104ZM253.26562 65.916664L252.28125 65.916664L252.28125 57.322914L253.34375 57.322914L253.34375 60.385414Q254.01562 59.55729 255.04688 59.55729Q255.625 59.55729 256.125 59.791664Q256.64062 60.010414 256.96875 60.43229Q257.3125 60.854164 257.5 61.447914Q257.6875 62.041664 257.6875 62.71354Q257.6875 64.30729 256.89062 65.18229Q256.09375 66.05729 255.0 66.05729Q253.89062 66.05729 253.26562 65.135414L253.26562 65.916664ZM253.25 62.760414Q253.25 63.86979 253.5625 64.36979Q254.0625 65.18229 254.90625 65.18229Q255.59375 65.18229 256.09375 64.58854Q256.60938 63.99479 256.60938 62.791664Q256.60938 61.572914 256.125 60.99479Q255.64062 60.416664 254.95312 60.416664Q254.26562 60.416664 253.75 61.02604Q253.25 61.61979 253.25 62.760414ZM263.35938 65.15104Q262.76562 65.65104 262.21875 65.854164Q261.6875 66.05729 261.0625 66.05729Q260.03125 66.05729 259.48438 65.55729Q258.9375 65.05729 258.9375 64.27604Q258.9375 63.822914 259.14062 63.447914Q259.34375 63.05729 259.6875 62.83854Q260.03125 62.604164 260.45312 62.49479Q260.75 62.40104 261.39062 62.322914Q262.65625 62.18229 263.26562 61.96354Q263.26562 61.74479 263.26562 61.697914Q263.26562 61.041664 262.96875 60.77604Q262.5625 60.43229 261.76562 60.43229Q261.03125 60.43229 260.67188 60.697914Q260.3125 60.947914 260.14062 61.604164L259.10938 61.46354Q259.25 60.80729 259.57812 60.40104Q259.90625 59.99479 260.51562 59.77604Q261.125 59.55729 261.92188 59.55729Q262.71875 59.55729 263.21875 59.74479Q263.71875 59.93229 263.95312 60.21354Q264.1875 60.49479 264.28125 60.93229Q264.32812 61.197914 264.32812 61.90104L264.32812 63.30729Q264.32812 64.77604 264.39062 65.166664Q264.46875 65.55729 264.67188 65.916664L263.5625 65.916664Q263.40625 65.58854 263.35938 65.15104ZM263.26562 62.791664Q262.6875 63.02604 261.54688 63.197914Q260.89062 63.291664 260.625 63.416664Q260.35938 63.52604 260.20312 63.74479Q260.0625 63.96354 260.0625 64.24479Q260.0625 64.666664 260.375 64.947914Q260.70312 65.229164 261.3125 65.229164Q261.92188 65.229164 262.39062 64.96354Q262.875 64.697914 263.09375 64.229164Q263.26562 63.86979 263.26562 63.18229L263.26562 62.791664ZM265.875 64.05729L266.90625 63.90104Q267.0 64.52604 267.39062 64.854164Q267.79688 65.18229 268.53125 65.18229Q269.25 65.18229 269.59375 64.90104Q269.95312 64.604164 269.95312 64.197914Q269.95312 63.83854 269.64062 63.635414Q269.42188 63.49479 268.5625 63.27604Q267.40625 62.979164 266.95312 62.77604Q266.51562 62.55729 266.28125 62.18229Q266.04688 61.80729 266.04688 61.33854Q266.04688 60.93229 266.23438 60.572914Q266.42188 60.21354 266.75 59.979164Q267.0 59.80729 267.42188 59.68229Q267.84375 59.55729 268.34375 59.55729Q269.0625 59.55729 269.60938 59.77604Q270.17188 59.979164 270.4375 60.33854Q270.70312 60.697914 270.79688 61.291664L269.76562 61.43229Q269.70312 60.96354 269.35938 60.697914Q269.03125 60.416664 268.40625 60.416664Q267.6875 60.416664 267.375 60.666664Q267.0625 60.90104 267.0625 61.229164Q267.0625 61.43229 267.1875 61.58854Q267.32812 61.760414 267.59375 61.86979Q267.75 61.93229 268.53125 62.135414Q269.65625 62.447914 270.09375 62.635414Q270.53125 62.822914 270.78125 63.18229Q271.03125 63.541664 271.03125 64.08854Q271.03125 64.61979 270.71875 65.08854Q270.42188 65.541664 269.84375 65.80729Q269.26562 66.05729 268.53125 66.05729Q267.3125 66.05729 266.67188 65.55729Q266.04688 65.041664 265.875 64.05729ZM277.54688 63.916664L278.64062 64.041664Q278.39062 64.99479 277.6875 65.52604Q276.98438 66.05729 275.90625 66.05729Q274.54688 66.05729 273.73438 65.21354Q272.9375 64.36979 272.9375 62.854164Q272.9375 61.291664 273.75 60.43229Q274.5625 59.55729 275.84375 59.55729Q277.09375 59.55729 277.875 60.40104Q278.67188 61.24479 278.67188 62.791664Q278.67188 62.885414 278.67188 63.072914L274.03125 63.072914Q274.09375 64.104164 274.60938 64.65104Q275.125 65.18229 275.90625 65.18229Q276.48438 65.18229 276.89062 64.885414Q277.3125 64.572914 277.54688 63.916664ZM274.09375 62.21354L277.5625 62.21354Q277.5 61.416664 277.17188 61.02604Q276.65625 60.416664 275.85938 60.416664Q275.125 60.416664 274.625 60.90104Q274.14062 61.385414 274.09375 62.21354Z" fill-rule="nonzero"/><path fill="#ea4335" d="M295.5 56.916668C295.5 56.364384 295.94772 55.916668 296.5 55.916668L306.5 55.916668C307.05228 55.916668 307.5 56.364384 307.5 56.916668L307.5 66.916664C307.5 67.46895 307.05228 67.916664 306.5 67.916664L296.5 67.916664C295.94772 67.916664 295.5 67.46895 295.5 66.916664Z" fill-rule="nonzero"/><path fill="#1a1a1a" d="M318.59375 64.979164L318.75 65.90104Q318.29688 65.99479 317.95312 65.99479Q317.375 65.99479 317.0625 65.822914Q316.75 65.635414 316.60938 65.33854Q316.48438 65.041664 316.48438 64.08854L316.48438 60.510414L315.71875 60.510414L315.71875 59.697914L316.48438 59.697914L316.48438 58.15104L317.53125 57.52604L317.53125 59.697914L318.59375 59.697914L318.59375 60.510414L317.53125 60.510414L317.53125 64.15104Q317.53125 64.604164 317.57812 64.729164Q317.64062 64.854164 317.76562 64.93229Q317.89062 65.010414 318.125 65.010414Q318.3125 65.010414 318.59375 64.979164ZM319.0 63.65104L320.0625 63.510414Q320.23438 64.40104 320.67188 64.80729Q321.10938 65.197914 321.73438 65.197914Q322.48438 65.197914 323.0 64.68229Q323.51562 64.166664 323.51562 63.40104Q323.51562 62.68229 323.03125 62.21354Q322.5625 61.729164 321.82812 61.729164Q321.53125 61.729164 321.07812 61.854164L321.20312 60.916664Q321.3125 60.93229 321.375 60.93229Q322.04688 60.93229 322.57812 60.58854Q323.125 60.229164 323.125 59.49479Q323.125 58.916664 322.73438 58.541664Q322.34375 58.15104 321.71875 58.15104Q321.10938 58.15104 320.6875 58.541664Q320.28125 58.93229 320.17188 59.697914L319.10938 59.510414Q319.29688 58.46354 319.98438 57.885414Q320.67188 57.291664 321.6875 57.291664Q322.39062 57.291664 322.98438 57.604164Q323.57812 57.90104 323.89062 58.416664Q324.20312 58.93229 324.20312 59.52604Q324.20312 60.072914 323.90625 60.541664Q323.60938 60.99479 323.03125 61.260414Q323.78125 61.43229 324.20312 61.99479Q324.625 62.541664 324.625 63.385414Q324.625 64.510414 323.79688 65.291664Q322.98438 66.072914 321.73438 66.072914Q320.60938 66.072914 319.85938 65.40104Q319.10938 64.71354 319.0 63.65104ZM328.90625 62.80729Q328.90625 61.072914 329.85938 60.24479Q330.65625 59.55729 331.8125 59.55729Q333.09375 59.55729 333.90625 60.40104Q334.73438 61.229164 334.73438 62.71354Q334.73438 63.916664 334.375 64.604164Q334.01562 65.291664 333.3125 65.68229Q332.625 66.05729 331.8125 66.05729Q330.51562 66.05729 329.70312 65.229164Q328.90625 64.385414 328.90625 62.80729ZM329.98438 62.80729Q329.98438 63.99479 330.5 64.58854Q331.03125 65.18229 331.8125 65.18229Q332.60938 65.18229 333.125 64.58854Q333.64062 63.99479 333.64062 62.77604Q333.64062 61.61979 333.10938 61.02604Q332.59375 60.43229 331.8125 60.43229Q331.03125 60.43229 330.5 61.02604Q329.98438 61.604164 329.98438 62.80729ZM336.29688 68.30729L336.29688 59.697914L337.25 59.697914L337.25 60.49479Q337.59375 60.02604 338.01562 59.791664Q338.45312 59.55729 339.0625 59.55729Q339.85938 59.55729 340.46875 59.96354Q341.07812 60.36979 341.375 61.11979Q341.6875 61.86979 341.6875 62.760414Q341.6875 63.71354 341.34375 64.479164Q341.01562 65.24479 340.35938 65.65104Q339.70312 66.05729 338.98438 66.05729Q338.45312 66.05729 338.03125 65.83854Q337.60938 65.604164 337.34375 65.27604L337.34375 68.30729L336.29688 68.30729ZM337.25 62.83854Q337.25 64.041664 337.73438 64.61979Q338.21875 65.18229 338.90625 65.18229Q339.60938 65.18229 340.10938 64.58854Q340.60938 63.99479 340.60938 62.74479Q340.60938 61.55729 340.125 60.979164Q339.64062 60.385414 338.95312 60.385414Q338.28125 60.385414 337.76562 61.010414Q337.25 61.635414 337.25 62.83854ZM345.59375 64.979164L345.75 65.90104Q345.29688 65.99479 344.95312 65.99479Q344.375 65.99479 344.0625 65.822914Q343.75 65.635414 343.60938 65.33854Q343.48438 65.041664 343.48438 64.08854L343.48438 60.510414L342.71875 60.510414L342.71875 59.697914L343.48438 59.697914L343.48438 58.15104L344.53125 57.52604L344.53125 59.697914L345.59375 59.697914L345.59375 60.510414L344.53125 60.510414L344.53125 64.15104Q344.53125 64.604164 344.57812 64.729164Q344.64062 64.854164 344.76562 64.93229Q344.89062 65.010414 345.125 65.010414Q345.3125 65.010414 345.59375 64.979164ZM346.29688 58.541664L346.29688 57.322914L347.35938 57.322914L347.35938 58.541664L346.29688 58.541664ZM346.29688 65.916664L346.29688 59.697914L347.35938 59.697914L347.35938 65.916664L346.29688 65.916664ZM349.29688 65.916664L349.29688 59.697914L350.23438 59.697914L350.23438 60.572914Q350.53125 60.104164 351.01562 59.83854Q351.5 59.55729 352.125 59.55729Q352.8125 59.55729 353.25 59.83854Q353.70312 60.11979 353.875 60.635414Q354.625 59.55729 355.79688 59.55729Q356.73438 59.55729 357.21875 60.072914Q357.71875 60.572914 357.71875 61.65104L357.71875 65.916664L356.67188 65.916664L356.67188 61.99479Q356.67188 61.36979 356.5625 61.08854Q356.46875 60.80729 356.20312 60.635414Q355.9375 60.46354 355.5625 60.46354Q354.90625 60.46354 354.46875 60.90104Q354.04688 61.33854 354.04688 62.30729L354.04688 65.916664L352.98438 65.916664L352.98438 61.86979Q352.98438 61.166664 352.71875 60.822914Q352.46875 60.46354 351.89062 60.46354Q351.4375 60.46354 351.0625 60.697914Q350.6875 60.93229 350.51562 61.385414Q350.34375 61.83854 350.34375 62.68229L350.34375 65.916664L349.29688 65.916664ZM360.29688 58.541664L360.29688 57.322914L361.35938 57.322914L361.35938 58.541664L360.29688 58.541664ZM360.29688 65.916664L360.29688 59.697914L361.35938 59.697914L361.35938 65.916664L360.29688 65.916664ZM362.73438 65.916664L362.73438 65.05729L366.70312 60.510414Q366.01562 60.541664 365.5 60.541664L362.96875 60.541664L362.96875 59.697914L368.0625 59.697914L368.0625 60.385414L364.6875 64.33854L364.03125 65.05729Q364.75 65.010414 365.35938 65.010414L368.25 65.010414L368.25 65.916664L362.73438 65.916664ZM372.54688 63.916664L373.64062 64.041664Q373.39062 64.99479 372.6875 65.52604Q371.98438 66.05729 370.90625 66.05729Q369.54688 66.05729 368.73438 65.21354Q367.9375 64.36979 367.9375 62.854164Q367.9375 61.291664 368.75 60.43229Q369.5625 59.55729 370.84375 59.55729Q372.09375 59.55729 372.875 60.40104Q373.67188 61.24479 373.67188 62.791664Q373.67188 62.885414 373.67188 63.072914L369.03125 63.072914Q369.09375 64.104164 369.60938 64.65104Q370.125 65.18229 370.90625 65.18229Q371.48438 65.18229 371.89062 64.885414Q372.3125 64.572914 372.54688 63.916664ZM369.09375 62.21354L372.5625 62.21354Q372.5 61.416664 372.17188 61.02604Q371.65625 60.416664 370.85938 60.416664Q370.125 60.416664 369.625 60.90104Q369.14062 61.385414 369.09375 62.21354ZM379.32812 65.916664L379.32812 65.135414Q378.73438 66.05729 377.59375 66.05729Q376.84375 66.05729 376.21875 65.65104Q375.59375 65.229164 375.25 64.49479Q374.90625 63.760414 374.90625 62.80729Q374.90625 61.885414 375.21875 61.11979Q375.53125 60.354164 376.15625 59.96354Q376.78125 59.55729 377.54688 59.55729Q378.10938 59.55729 378.54688 59.791664Q378.98438 60.02604 379.26562 60.40104L379.26562 57.322914L380.3125 57.322914L380.3125 65.916664L379.32812 65.916664ZM376.0 62.80729Q376.0 64.010414 376.5 64.604164Q377.0 65.18229 377.6875 65.18229Q378.375 65.18229 378.85938 64.61979Q379.34375 64.05729 379.34375 62.90104Q379.34375 61.61979 378.84375 61.02604Q378.35938 60.43229 377.64062 60.43229Q376.9375 60.43229 376.46875 61.010414Q376.0 61.572914 376.0 62.80729Z" fill-rule="nonzero"/><path fill="#757575" d="M23.7375 37.55L23.7375 24.925L19.01875 24.925L19.01875 23.2375L30.3625 23.2375L30.3625 24.925L25.628124 24.925L25.628124 37.55L23.7375 37.55ZM38.971874 34.20625L40.784374 34.440624Q40.3625 36.01875 39.190624 36.909374Q38.034374 37.784374 36.221874 37.784374Q33.95625 37.784374 32.6125 36.39375Q31.284374 34.9875 31.284374 32.45625Q31.284374 29.83125 32.628124 28.39375Q33.971874 26.940624 36.128124 26.940624Q38.20625 26.940624 39.51875 28.3625Q40.846874 29.76875 40.846874 32.346874Q40.846874 32.503124 40.83125 32.815624L33.096874 32.815624Q33.190624 34.51875 34.065624 35.425Q34.940624 36.33125 36.2375 36.33125Q37.20625 36.33125 37.878124 35.83125Q38.565624 35.315624 38.971874 34.20625ZM33.190624 31.3625L38.9875 31.3625Q38.878124 30.065624 38.33125 29.409374Q37.4875 28.39375 36.14375 28.39375Q34.940624 28.39375 34.1125 29.20625Q33.284374 30.003124 33.190624 31.3625ZM42.8625 37.55L42.8625 27.175L44.440624 27.175L44.440624 28.628124Q44.925 27.878124 45.7375 27.409374Q46.55 26.940624 47.58125 26.940624Q48.7375 26.940624 49.471874 27.425Q50.20625 27.89375 50.51875 28.753124Q51.753124 26.940624 53.721874 26.940624Q55.26875 26.940624 56.096874 27.8Q56.925 28.659374 56.925 30.425L56.925 37.55L55.175 37.55L55.175 31.01875Q55.175 29.95625 55.003124 29.503124Q54.83125 29.034374 54.378124 28.753124Q53.940624 28.471874 53.33125 28.471874Q52.2375 28.471874 51.503124 29.20625Q50.784374 29.925 50.784374 31.51875L50.784374 37.55L49.034374 37.55L49.034374 30.815624Q49.034374 29.64375 48.596874 29.065624Q48.175 28.471874 47.190624 28.471874Q46.45625 28.471874 45.815624 28.8625Q45.190624 29.253124 44.909374 30.003124Q44.628124 30.753124 44.628124 32.175L44.628124 37.55L42.8625 37.55ZM58.8625 41.51875L58.8625 27.175L60.471874 27.175L60.471874 28.51875Q61.034374 27.7375 61.7375 27.346874Q62.45625 26.940624 63.471874 26.940624Q64.8 26.940624 65.81563 27.628124Q66.83125 28.315624 67.34688 29.565624Q67.87813 30.8 67.87813 32.284374Q67.87813 33.878124 67.3 35.159374Q66.7375 36.425 65.64375 37.1125Q64.55 37.784374 63.346874 37.784374Q62.471874 37.784374 61.76875 37.409374Q61.08125 37.034374 60.628124 36.471874L60.628124 41.51875L58.8625 41.51875ZM60.45625 32.425Q60.45625 34.425 61.26875 35.378124Q62.08125 36.33125 63.2375 36.33125Q64.40938 36.33125 65.2375 35.346874Q66.08125 34.3625 66.08125 32.26875Q66.08125 30.3 65.25313 29.315624Q64.44063 28.315624 63.315624 28.315624Q62.190624 28.315624 61.315624 29.378124Q60.45625 30.425 60.45625 32.425ZM69.22188 32.3625Q69.22188 29.4875 70.81563 28.096874Q72.15938 26.940624 74.08125 26.940624Q76.22188 26.940624 77.56563 28.346874Q78.925 29.753124 78.925 32.221874Q78.925 34.221874 78.33125 35.378124Q77.7375 36.51875 76.58125 37.159374Q75.44063 37.784374 74.08125 37.784374Q71.89375 37.784374 70.55 36.39375Q69.22188 34.9875 69.22188 32.3625ZM71.01875 32.3625Q71.01875 34.3625 71.87813 35.346874Q72.75313 36.33125 74.08125 36.33125Q75.39375 36.33125 76.25313 35.346874Q77.12813 34.346874 77.12813 32.3Q77.12813 30.378124 76.25313 29.39375Q75.37813 28.39375 74.08125 28.39375Q72.75313 28.39375 71.87813 29.39375Q71.01875 30.378124 71.01875 32.3625ZM93.59688 37.55L93.59688 36.2375Q92.6125 37.784374 90.69063 37.784374Q89.45625 37.784374 88.40938 37.096874Q87.37813 36.409374 86.8 35.190624Q86.2375 33.971874 86.2375 32.378124Q86.2375 30.815624 86.75313 29.55Q87.26875 28.284374 88.3 27.6125Q89.34688 26.940624 90.6125 26.940624Q91.55 26.940624 92.28438 27.346874Q93.01875 27.7375 93.4875 28.3625L93.4875 23.2375L95.22188 23.2375L95.22188 37.55L93.59688 37.55ZM88.03438 32.378124Q88.03438 34.3625 88.87813 35.346874Q89.72188 36.33125 90.8625 36.33125Q92.01875 36.33125 92.81563 35.39375Q93.62813 34.45625 93.62813 32.51875Q93.62813 30.39375 92.8 29.39375Q91.9875 28.39375 90.78438 28.39375Q89.6125 28.39375 88.81563 29.3625Q88.03438 30.315624 88.03438 32.378124ZM104.97188 34.20625L106.78438 34.440624Q106.3625 36.01875 105.19063 36.909374Q104.03438 37.784374 102.22188 37.784374Q99.95625 37.784374 98.6125 36.39375Q97.28438 34.9875 97.28438 32.45625Q97.28438 29.83125 98.62813 28.39375Q99.97188 26.940624 102.12813 26.940624Q104.20625 26.940624 105.51875 28.3625Q106.84688 29.76875 106.84688 32.346874Q106.84688 32.503124 106.83125 32.815624L99.09688 32.815624Q99.19063 34.51875 100.06563 35.425Q100.94063 36.33125 102.2375 36.33125Q103.20625 36.33125 103.87813 35.83125Q104.56563 35.315624 104.97188 34.20625ZM99.19063 31.3625L104.9875 31.3625Q104.87813 30.065624 104.33125 29.409374Q103.4875 28.39375 102.14375 28.39375Q100.94063 28.39375 100.1125 29.20625Q99.28438 30.003124 99.19063 31.3625ZM114.84688 37.55L114.84688 27.175L116.425 27.175L116.425 28.753124Q117.03438 27.64375 117.55 27.3Q118.06563 26.940624 118.675 26.940624Q119.56563 26.940624 120.4875 27.503124L119.87813 29.14375Q119.2375 28.753124 118.59688 28.753124Q118.01875 28.753124 117.55 29.1125Q117.09688 29.45625 116.89375 30.065624Q116.6125 31.003124 116.6125 32.1125L116.6125 37.55L114.84688 37.55ZM128.97188 34.20625L130.78438 34.440624Q130.3625 36.01875 129.19063 36.909374Q128.03438 37.784374 126.22188 37.784374Q123.95625 37.784374 122.6125 36.39375Q121.28438 34.9875 121.28438 32.45625Q121.28438 29.83125 122.62813 28.39375Q123.97188 26.940624 126.12813 26.940624Q128.20625 26.940624 129.51875 28.3625Q130.84688 29.76875 130.84688 32.346874Q130.84688 32.503124 130.83125 32.815624L123.09688 32.815624Q123.19063 34.51875 124.06563 35.425Q124.94063 36.33125 126.2375 36.33125Q127.20625 36.33125 127.87813 35.83125Q128.56563 35.315624 128.97188 34.20625ZM123.19063 31.3625L128.9875 31.3625Q128.87813 30.065624 128.33125 29.409374Q127.4875 28.39375 126.14375 28.39375Q124.94063 28.39375 124.1125 29.20625Q123.28438 30.003124 123.19063 31.3625ZM132.15938 34.45625L133.90938 34.175Q134.05 35.221874 134.72188 35.784374Q135.39375 36.33125 136.59688 36.33125Q137.8 36.33125 138.37813 35.846874Q138.97188 35.346874 138.97188 34.690624Q138.97188 34.096874 138.45625 33.753124Q138.09688 33.51875 136.65938 33.159374Q134.72188 32.659374 133.97188 32.315624Q133.2375 31.95625 132.84688 31.33125Q132.45625 30.690624 132.45625 29.925Q132.45625 29.2375 132.76875 28.64375Q133.09688 28.05 133.64375 27.659374Q134.05 27.3625 134.75313 27.159374Q135.47188 26.940624 136.28438 26.940624Q137.50313 26.940624 138.425 27.3Q139.34688 27.64375 139.78438 28.253124Q140.22188 28.846874 140.39375 29.846874L138.675 30.08125Q138.55 29.284374 137.9875 28.846874Q137.425 28.39375 136.40938 28.39375Q135.19063 28.39375 134.675 28.8Q134.15938 29.190624 134.15938 29.721874Q134.15938 30.065624 134.37813 30.346874Q134.58125 30.628124 135.05 30.815624Q135.31563 30.909374 136.59688 31.253124Q138.47188 31.753124 139.20625 32.08125Q139.94063 32.39375 140.3625 33.003124Q140.78438 33.596874 140.78438 34.503124Q140.78438 35.378124 140.26875 36.159374Q139.75313 36.940624 138.78438 37.3625Q137.81563 37.784374 136.59688 37.784374Q134.58125 37.784374 133.51875 36.940624Q132.45625 36.096874 132.15938 34.45625ZM142.8625 41.51875L142.8625 27.175L144.47188 27.175L144.47188 28.51875Q145.03438 27.7375 145.7375 27.346874Q146.45625 26.940624 147.47188 26.940624Q148.8 26.940624 149.81563 27.628124Q150.83125 28.315624 151.34688 29.565624Q151.87813 30.8 151.87813 32.284374Q151.87813 33.878124 151.3 35.159374Q150.7375 36.425 149.64375 37.1125Q148.55 37.784374 147.34688 37.784374Q146.47188 37.784374 145.76875 37.409374Q145.08125 37.034374 144.62813 36.471874L144.62813 41.51875L142.8625 41.51875ZM144.45625 32.425Q144.45625 34.425 145.26875 35.378124Q146.08125 36.33125 147.2375 36.33125Q148.40938 36.33125 149.2375 35.346874Q150.08125 34.3625 150.08125 32.26875Q150.08125 30.3 149.25313 29.315624Q148.44063 28.315624 147.31563 28.315624Q146.19063 28.315624 145.31563 29.378124Q144.45625 30.425 144.45625 32.425ZM153.22188 32.3625Q153.22188 29.4875 154.81563 28.096874Q156.15938 26.940624 158.08125 26.940624Q160.22188 26.940624 161.56563 28.346874Q162.925 29.753124 162.925 32.221874Q162.925 34.221874 162.33125 35.378124Q161.7375 36.51875 160.58125 37.159374Q159.44063 37.784374 158.08125 37.784374Q155.89375 37.784374 154.55 36.39375Q153.22188 34.9875 153.22188 32.3625ZM155.01875 32.3625Q155.01875 34.3625 155.87813 35.346874Q156.75313 36.33125 158.08125 36.33125Q159.39375 36.33125 160.25313 35.346874Q161.12813 34.346874 161.12813 32.3Q161.12813 30.378124 160.25313 29.39375Q159.37813 28.39375 158.08125 28.39375Q156.75313 28.39375 155.87813 29.39375Q155.01875 30.378124 155.01875 32.3625ZM164.15938 34.45625L165.90938 34.175Q166.05 35.221874 166.72188 35.784374Q167.39375 36.33125 168.59688 36.33125Q169.8 36.33125 170.37813 35.846874Q170.97188 35.346874 170.97188 34.690624Q170.97188 34.096874 170.45625 33.753124Q170.09688 33.51875 168.65938 33.159374Q166.72188 32.659374 165.97188 32.315624Q165.2375 31.95625 164.84688 31.33125Q164.45625 30.690624 164.45625 29.925Q164.45625 29.2375 164.76875 28.64375Q165.09688 28.05 165.64375 27.659374Q166.05 27.3625 166.75313 27.159374Q167.47188 26.940624 168.28438 26.940624Q169.50313 26.940624 170.425 27.3Q171.34688 27.64375 171.78438 28.253124Q172.22188 28.846874 172.39375 29.846874L170.675 30.08125Q170.55 29.284374 169.9875 28.846874Q169.425 28.39375 168.40938 28.39375Q167.19063 28.39375 166.675 28.8Q166.15938 29.190624 166.15938 29.721874Q166.15938 30.065624 166.37813 30.346874Q166.58125 30.628124 167.05 30.815624Q167.31563 30.909374 168.59688 31.253124Q170.47188 31.753124 171.20625 32.08125Q171.94063 32.39375 172.3625 33.003124Q172.78438 33.596874 172.78438 34.503124Q172.78438 35.378124 172.26875 36.159374Q171.75313 36.940624 170.78438 37.3625Q169.81563 37.784374 168.59688 37.784374Q166.58125 37.784374 165.51875 36.940624Q164.45625 36.096874 164.15938 34.45625ZM178.70625 35.971874L178.95625 37.534374Q178.22188 37.690624 177.62813 37.690624Q176.675 37.690624 176.14375 37.39375Q175.62813 37.08125 175.40938 36.596874Q175.19063 36.096874 175.19063 34.51875L175.19063 28.55L173.90938 28.55L173.90938 27.175L175.19063 27.175L175.19063 24.6125L176.94063 23.55L176.94063 27.175L178.70625 27.175L178.70625 28.55L176.94063 28.55L176.94063 34.6125Q176.94063 35.3625 177.03438 35.58125Q177.12813 35.784374 177.33125 35.925Q177.55 36.05 177.94063 36.05Q178.22188 36.05 178.70625 35.971874ZM187.64375 36.26875Q186.65938 37.096874 185.75313 37.440624Q184.84688 37.784374 183.81563 37.784374Q182.1125 37.784374 181.19063 36.95625Q180.26875 36.1125 180.26875 34.815624Q180.26875 34.05 180.6125 33.425Q180.97188 32.8 181.53438 32.425Q182.09688 32.034374 182.8 31.83125Q183.31563 31.70625 184.3625 31.565624Q186.4875 31.315624 187.4875 30.971874Q187.50313 30.6125 187.50313 30.503124Q187.50313 29.440624 187.00313 28.9875Q186.33125 28.39375 185.00313 28.39375Q183.75313 28.39375 183.15938 28.83125Q182.58125 29.26875 182.3 30.378124L180.58125 30.14375Q180.81563 29.034374 181.34688 28.3625Q181.87813 27.675 182.89375 27.315624Q183.90938 26.940624 185.25313 26.940624Q186.58125 26.940624 187.40938 27.253124Q188.2375 27.565624 188.62813 28.05Q189.01875 28.51875 189.175 29.2375Q189.26875 29.690624 189.26875 30.8625L189.26875 33.20625Q189.26875 35.659374 189.37813 36.315624Q189.4875 36.95625 189.83125 37.55L187.9875 37.55Q187.72188 37.003124 187.64375 36.26875ZM187.4875 32.346874Q186.53438 32.7375 184.6125 33.003124Q183.53438 33.159374 183.08125 33.3625Q182.64375 33.55 182.39375 33.925Q182.14375 34.3 182.14375 34.76875Q182.14375 35.471874 182.675 35.940624Q183.20625 36.409374 184.2375 36.409374Q185.25313 36.409374 186.03438 35.971874Q186.83125 35.51875 187.20625 34.753124Q187.4875 34.14375 187.4875 32.9875L187.4875 32.346874ZM197.8625 37.55L197.8625 27.175L199.44063 27.175L199.44063 28.628124Q199.925 27.878124 200.7375 27.409374Q201.55 26.940624 202.58125 26.940624Q203.7375 26.940624 204.47188 27.425Q205.20625 27.89375 205.51875 28.753124Q206.75313 26.940624 208.72188 26.940624Q210.26875 26.940624 211.09688 27.8Q211.925 28.659374 211.925 30.425L211.925 37.55L210.175 37.55L210.175 31.01875Q210.175 29.95625 210.00313 29.503124Q209.83125 29.034374 209.37813 28.753124Q208.94063 28.471874 208.33125 28.471874Q207.2375 28.471874 206.50313 29.20625Q205.78438 29.925 205.78438 31.51875L205.78438 37.55L204.03438 37.55L204.03438 30.815624Q204.03438 29.64375 203.59688 29.065624Q203.175 28.471874 202.19063 28.471874Q201.45625 28.471874 200.81563 28.8625Q200.19063 29.253124 199.90938 30.003124Q199.62813 30.753124 199.62813 32.175L199.62813 37.55L197.8625 37.55ZM220.97188 34.20625L222.78438 34.440624Q222.3625 36.01875 221.19063 36.909374Q220.03438 37.784374 218.22188 37.784374Q215.95625 37.784374 214.6125 36.39375Q213.28438 34.9875 213.28438 32.45625Q213.28438 29.83125 214.62813 28.39375Q215.97188 26.940624 218.12813 26.940624Q220.20625 26.940624 221.51875 28.3625Q222.84688 29.76875 222.84688 32.346874Q222.84688 32.503124 222.83125 32.815624L215.09688 32.815624Q215.19063 34.51875 216.06563 35.425Q216.94063 36.33125 218.2375 36.33125Q219.20625 36.33125 219.87813 35.83125Q220.56563 35.315624 220.97188 34.20625ZM215.19063 31.3625L220.9875 31.3625Q220.87813 30.065624 220.33125 29.409374Q219.4875 28.39375 218.14375 28.39375Q216.94063 28.39375 216.1125 29.20625Q215.28438 30.003124 215.19063 31.3625ZM217.09688 25.89375L218.39375 23.159374L220.69063 23.159374L218.55 25.89375L217.09688 25.89375ZM231.59688 37.55L231.59688 36.2375Q230.6125 37.784374 228.69063 37.784374Q227.45625 37.784374 226.40938 37.096874Q225.37813 36.409374 224.8 35.190624Q224.2375 33.971874 224.2375 32.378124Q224.2375 30.815624 224.75313 29.55Q225.26875 28.284374 226.3 27.6125Q227.34688 26.940624 228.6125 26.940624Q229.55 26.940624 230.28438 27.346874Q231.01875 27.7375 231.4875 28.3625L231.4875 23.2375L233.22188 23.2375L233.22188 37.55L231.59688 37.55ZM226.03438 32.378124Q226.03438 34.3625 226.87813 35.346874Q227.72188 36.33125 228.8625 36.33125Q230.01875 36.33125 230.81563 35.39375Q231.62813 34.45625 231.62813 32.51875Q231.62813 30.39375 230.8 29.39375Q229.9875 28.39375 228.78438 28.39375Q227.6125 28.39375 226.81563 29.3625Q226.03438 30.315624 226.03438 32.378124ZM235.87813 25.253124L235.87813 23.2375L237.64375 23.2375L237.64375 25.253124L235.87813 25.253124ZM235.87813 37.55L235.87813 27.175L237.64375 27.175L237.64375 37.55L235.87813 37.55ZM239.22188 32.3625Q239.22188 29.4875 240.81563 28.096874Q242.15938 26.940624 244.08125 26.940624Q246.22188 26.940624 247.56563 28.346874Q248.925 29.753124 248.925 32.221874Q248.925 34.221874 248.33125 35.378124Q247.7375 36.51875 246.58125 37.159374Q245.44063 37.784374 244.08125 37.784374Q241.89375 37.784374 240.55 36.39375Q239.22188 34.9875 239.22188 32.3625ZM241.01875 32.3625Q241.01875 34.3625 241.87813 35.346874Q242.75313 36.33125 244.08125 36.33125Q245.39375 36.33125 246.25313 35.346874Q247.12813 34.346874 247.12813 32.3Q247.12813 30.378124 246.25313 29.39375Q245.37813 28.39375 244.08125 28.39375Q242.75313 28.39375 241.87813 29.39375Q241.01875 30.378124 241.01875 32.3625ZM260.22186 41.753124Q258.76874 39.925 257.76874 37.471874Q256.76874 35.003124 256.76874 32.3625Q256.76874 30.034374 257.51874 27.909374Q258.39374 25.440624 260.22186 22.9875L261.4875 22.9875Q260.3 25.01875 259.925 25.89375Q259.33124 27.2375 258.9875 28.70625Q258.5656 30.534374 258.5656 32.378124Q258.5656 37.065624 261.4875 41.753124L260.22186 41.753124ZM270.97186 34.20625L272.78436 34.440624Q272.3625 36.01875 271.1906 36.909374Q270.03436 37.784374 268.22186 37.784374Q265.95624 37.784374 264.6125 36.39375Q263.28436 34.9875 263.28436 32.45625Q263.28436 29.83125 264.6281 28.39375Q265.97186 26.940624 268.1281 26.940624Q270.20624 26.940624 271.51874 28.3625Q272.84686 29.76875 272.84686 32.346874Q272.84686 32.503124 272.83124 32.815624L265.09686 32.815624Q265.1906 34.51875 266.0656 35.425Q266.9406 36.33125 268.2375 36.33125Q269.20624 36.33125 269.8781 35.83125Q270.5656 35.315624 270.97186 34.20625ZM265.1906 31.3625L270.9875 31.3625Q270.8781 30.065624 270.33124 29.409374Q269.4875 28.39375 268.14374 28.39375Q266.9406 28.39375 266.1125 29.20625Q265.28436 30.003124 265.1906 31.3625ZM274.8625 37.55L274.8625 27.175L276.4406 27.175L276.4406 28.628124Q276.925 27.878124 277.7375 27.409374Q278.55 26.940624 279.58124 26.940624Q280.7375 26.940624 281.47186 27.425Q282.20624 27.89375 282.51874 28.753124Q283.7531 26.940624 285.72186 26.940624Q287.26874 26.940624 288.09686 27.8Q288.925 28.659374 288.925 30.425L288.925 37.55L287.175 37.55L287.175 31.01875Q287.175 29.95625 287.0031 29.503124Q286.83124 29.034374 286.3781 28.753124Q285.9406 28.471874 285.33124 28.471874Q284.2375 28.471874 283.5031 29.20625Q282.78436 29.925 282.78436 31.51875L282.78436 37.55L281.03436 37.55L281.03436 30.815624Q281.03436 29.64375 280.59686 29.065624Q280.175 28.471874 279.1906 28.471874Q278.45624 28.471874 277.8156 28.8625Q277.1906 29.253124 276.90936 30.003124Q276.6281 30.753124 276.6281 32.175L276.6281 37.55L274.8625 37.55ZM296.8625 37.55L296.8625 27.175L298.4406 27.175L298.4406 28.628124Q298.925 27.878124 299.7375 27.409374Q300.55 26.940624 301.58124 26.940624Q302.7375 26.940624 303.47186 27.425Q304.20624 27.89375 304.51874 28.753124Q305.7531 26.940624 307.72186 26.940624Q309.26874 26.940624 310.09686 27.8Q310.925 28.659374 310.925 30.425L310.925 37.55L309.175 37.55L309.175 31.01875Q309.175 29.95625 309.0031 29.503124Q308.83124 29.034374 308.3781 28.753124Q307.9406 28.471874 307.33124 28.471874Q306.2375 28.471874 305.5031 29.20625Q304.78436 29.925 304.78436 31.51875L304.78436 37.55L303.03436 37.55L303.03436 30.815624Q303.03436 29.64375 302.59686 29.065624Q302.175 28.471874 301.1906 28.471874Q300.45624 28.471874 299.8156 28.8625Q299.1906 29.253124 298.90936 30.003124Q298.6281 30.753124 298.6281 32.175L298.6281 37.55L296.8625 37.55ZM312.15936 34.45625L313.90936 34.175Q314.05 35.221874 314.72186 35.784374Q315.39374 36.33125 316.59686 36.33125Q317.8 36.33125 318.3781 35.846874Q318.97186 35.346874 318.97186 34.690624Q318.97186 34.096874 318.45624 33.753124Q318.09686 33.51875 316.65936 33.159374Q314.72186 32.659374 313.97186 32.315624Q313.2375 31.95625 312.84686 31.33125Q312.45624 30.690624 312.45624 29.925Q312.45624 29.2375 312.76874 28.64375Q313.09686 28.05 313.64374 27.659374Q314.05 27.3625 314.7531 27.159374Q315.47186 26.940624 316.28436 26.940624Q317.5031 26.940624 318.425 27.3Q319.34686 27.64375 319.78436 28.253124Q320.22186 28.846874 320.39374 29.846874L318.675 30.08125Q318.55 29.284374 317.9875 28.846874Q317.425 28.39375 316.40936 28.39375Q315.1906 28.39375 314.675 28.8Q314.15936 29.190624 314.15936 29.721874Q314.15936 30.065624 314.3781 30.346874Q314.58124 30.628124 315.05 30.815624Q315.3156 30.909374 316.59686 31.253124Q318.47186 31.753124 319.20624 32.08125Q319.9406 32.39375 320.3625 33.003124Q320.78436 33.596874 320.78436 34.503124Q320.78436 35.378124 320.26874 36.159374Q319.7531 36.940624 318.78436 37.3625Q317.8156 37.784374 316.59686 37.784374Q314.58124 37.784374 313.51874 36.940624Q312.45624 36.096874 312.15936 34.45625ZM323.3625 37.55L323.3625 35.55L325.3625 35.55L325.3625 37.55L323.3625 37.55ZM330.01874 41.753124L328.76874 41.753124Q331.675 37.065624 331.675 32.378124Q331.675 30.534374 331.26874 28.7375Q330.925 27.26875 330.33124 25.925Q329.95624 25.034374 328.76874 22.9875L330.01874 22.9875Q331.8625 25.440624 332.7375 27.909374Q333.4875 30.034374 333.4875 32.3625Q333.4875 35.003124 332.47186 37.471874Q331.47186 39.925 330.01874 41.753124Z" fill-rule="nonzero"/></svg>